<?xml version="1.0" encoding="UTF-8"?>
<svg id="Layer_1" data-name="Layer 1" xmlns="http://www.w3.org/2000/svg" viewBox="0 0 186.2 244.62">
  <defs>
    <style>
      .cls-1 {
        fill: #fefeff;
      }
    </style>
  </defs>
  <path class="cls-1" d="M93.85,0c2-.01,3.86.65,5.7,1.38,7.58,3.01,14.99,6.71,22.42,10.11l30.91,13.98,20.1,9.16c3.57,1.65,7.36,3.19,10.74,5.22.98.58,1.76.99,2.01,2.18.73,3.47.35,7.59.35,11.15l.02,19.32.06,41.45c0,8.25.18,16.57-.21,24.81-.21,4.3-.85,8.61-1.65,12.84-2.48,13.32-7.47,26.05-14.71,37.51-13.91,21.76-33.46,37.42-56.77,48.18-6.35,2.93-12.92,5.82-19.78,7.32-.81-.03-1.6-.12-2.39-.29-6.14-1.36-12.28-3.83-18-6.41-22.39-10.09-42.27-26.06-55.5-46.89-6.88-10.59-11.72-22.37-14.28-34.74-1.37-6.93-2.24-13.96-2.6-21.02-.37-6.99-.14-14.1-.14-21.11v-37.39s-.02-22.16-.02-22.16c0-4.25-.48-9.17.45-13.31C2.17,39.29,80.5,4.73,89.36,1.3c1.46-.57,2.96-.96,4.49-1.3ZM20.15,53.61c.43,19.56.08,39.2.08,58.77,0,9.63-.53,19.51.18,29.1,1.69,22.88,11.98,42.21,28.4,57.94,9.91,9.49,22.49,17.1,35.42,21.65,2.61.92,5.79,2.13,8.57,2.04.61-.02,1.21-.08,1.81-.16,24.55-6.39,47.05-24.71,59.78-46.39,5.73-9.76,9.19-20.76,10.88-31.91,1.76-11.6.92-23.96.92-35.7l-.11-55.49c-12.3-6.31-25.24-11.55-37.81-17.31l-20.09-9.17c-4.04-1.83-8.09-3.85-12.28-5.31-1.32-.46-2.43-.69-3.83-.47-16.81,8.04-34.14,15.19-51.15,22.82-6.97,3.12-14.05,5.91-20.76,9.59Z"/>
  <path class="cls-1" d="M49.64,69.22c17.38-.54,34.88-.1,52.28-.1,11.31,0,24.22-.76,35.32.28-1.44,6.6-4.55,13.33-7.04,19.62-20.21.6-40.51-.19-60.73.16.7,7.35.47,15.55-.04,22.92,16.09.15,32.44-.7,48.49.24-.01.08-.02.17-.04.25l-.07.42c-1,6.24-3.79,13.36-6.65,18.96-12.72.17-25.44-.09-38.16.11-1.15.05-2.33.01-3.48.01.47,6.45-1.7,15.08,3.27,20.26,1.32,1.37,2.93,2.18,4.79,2.51,6.27,1.1,13.39.44,19.78.39,12.68-.09,25.45-.4,38.13.06-1.57,7.4-5.07,14.65-7.97,21.62-7.55.36-15.19.1-22.75.11-9.57.02-23.39,1.1-32.29-1.13-8.02-2-14.7-5.94-18.96-13.18-2.54-4.31-3.63-9.29-4.13-14.22-.48-4.75-.3-9.64-.28-14.42l.03-21.17-.04-26.84c0-5.28-.75-11.8.56-16.87Z"/>
</svg>