<?xml version="1.0" encoding="utf-8" ?>
<svg xmlns="http://www.w3.org/2000/svg" xmlns:xlink="http://www.w3.org/1999/xlink" width="739" height="556">
	<path fill="#FEFEFF" d="M115.739 159.942C117.736 159.93 119.6 160.597 121.436 161.326C129.021 164.339 136.428 168.039 143.854 171.439L174.766 185.423L194.868 194.588C198.443 196.237 202.231 197.781 205.609 199.807C206.585 200.392 207.368 200.794 207.62 201.992C208.35 205.466 207.965 209.578 207.971 213.141L207.99 232.465L208.053 273.914C208.053 282.161 208.235 290.488 207.841 298.726C207.635 303.022 206.988 307.341 206.193 311.564C203.713 324.885 198.722 337.613 191.487 349.07C177.575 370.828 158.031 386.493 134.721 397.25C128.373 400.179 121.799 403.069 114.943 404.566C114.132 404.54 113.342 404.451 112.549 404.276C106.409 402.915 100.27 400.441 94.5514 397.866C72.1568 387.78 52.2863 371.804 39.0554 350.979C32.1782 340.387 27.3345 328.606 24.7721 316.24C23.398 309.305 22.5298 302.28 22.1744 295.219C21.8027 288.224 22.0318 281.119 22.0307 274.111L22.0352 236.717L22.0157 214.561C22.0141 210.316 21.5382 205.389 22.4647 201.253C24.0659 199.23 102.396 164.676 111.25 161.245C112.709 160.68 114.215 160.286 115.739 159.942ZM42.0414 213.549C42.4741 233.11 42.1257 252.752 42.1168 272.322C42.1125 281.949 41.5883 291.836 42.2947 301.422C43.9809 324.302 54.2717 343.627 70.6921 359.359C80.6032 368.854 93.178 376.459 106.116 381.014C108.728 381.933 111.904 383.14 114.689 383.05C115.295 383.031 115.896 382.967 116.498 382.894C141.045 376.505 163.549 358.188 176.28 336.503C182.01 326.742 185.471 315.746 187.162 304.588C188.921 292.986 188.081 280.63 188.078 268.891L187.969 213.403C175.666 207.094 162.733 201.856 150.156 196.095L130.067 186.925C126.022 185.095 121.979 183.074 117.784 181.615C116.459 181.154 115.356 180.93 113.949 181.143C97.1422 189.188 79.8058 196.333 62.7992 203.963C55.8332 207.088 48.7522 209.876 42.0414 213.549Z"/>
	<path fill="#FEFEFF" d="M71.5343 229.163C88.9135 228.622 106.419 229.067 123.812 229.059C135.117 229.054 148.028 228.298 159.127 229.344C157.682 235.943 154.58 242.678 152.086 248.959C131.877 249.557 111.58 248.766 91.3523 249.118C92.0508 256.467 91.8196 264.667 91.3166 272.035C107.407 272.19 123.752 271.334 139.805 272.275C139.793 272.359 139.782 272.444 139.768 272.528L139.698 272.95C138.694 279.19 135.912 286.313 133.046 291.914C120.326 292.088 107.603 291.828 94.8825 292.026C93.729 292.08 92.5556 292.038 91.3998 292.041C91.8703 298.488 89.7029 307.119 94.6689 312.302C95.9857 313.676 97.5948 314.479 99.457 314.807C105.723 315.91 112.85 315.243 119.232 315.195C131.916 315.101 144.687 314.793 157.362 315.258C155.788 322.657 152.29 329.912 149.396 336.878C141.842 337.233 134.208 336.973 126.641 336.987C117.069 337.004 103.249 338.084 94.3532 335.859C86.3376 333.855 79.653 329.918 75.391 322.675C72.8533 318.363 71.7648 313.388 71.2656 308.454C70.7848 303.702 70.9701 298.813 70.9844 294.038L71.0144 272.869L70.9719 246.031C70.9664 240.754 70.2226 234.234 71.5343 229.163Z"/>
	<path fill="#FEFEFF" d="M173.321 32.2884C206.901 31.8992 240.524 32.2572 274.108 32.2572L479.718 32.2851L569.135 32.2641L594.912 32.1959C604.023 32.1702 613.033 32.0385 622.049 33.6053C644.044 37.4783 664.5 47.4784 681.066 62.4563C705.838 85.2032 718.424 114.974 719.784 148.39C720.53 166.742 719.943 185.303 719.951 203.686L719.976 308.465L719.992 376.234C719.996 395.24 721.181 414.785 717.198 433.468C712.874 453.752 702.866 471.993 688.834 487.163C668.774 509.041 640.814 522.014 611.154 523.205C597.89 523.696 584.571 523.46 571.3 523.458L507.341 523.444L312.436 523.441L213.212 523.441L184.164 523.457C173.736 523.442 163.136 523.515 152.835 521.717C132.158 518.109 112.415 507.838 97.0922 493.554C74.6267 472.613 62.2221 445.875 59.4775 415.38C58.8357 408.249 59.193 401.09 58.9472 393.94C63.5395 396.009 68.3563 397.533 72.9607 399.595C72.8068 421.46 76.3646 441.639 87.6958 460.628C101.56 483.674 123.957 500.32 150.024 506.951C158.807 508.962 167.786 509.991 176.796 510.019L480.882 510.01L566.027 510.024C584.769 510.029 606.349 511.344 624.623 507.929C644.267 504.061 662.316 494.437 676.475 480.282C696.239 460.777 705.674 434.92 705.883 407.406L705.897 226.513L705.917 173.823C705.92 159.431 706.804 144.746 703.874 130.569C699.62 109.995 690.466 91.4266 675.599 76.4158C655.586 56.2091 629.151 46.1741 600.979 46.0635L295.735 46.057L212.475 46.0696C195.024 46.0629 174.602 44.7977 157.575 47.901C137.361 51.5558 118.766 61.3538 104.324 75.9597C81.698 98.4768 73.0004 127.044 72.9676 158.426C68.1762 159.698 63.4667 161.542 58.8668 163.381C59.2029 156.21 58.8813 149.055 59.5726 141.892C62.1222 115.469 72.4443 89.3926 90.6608 69.8303C112.794 46.0618 140.946 33.4437 173.321 32.2884Z"/>
	<path fill="#FEFEFF" d="M265.252 208.001C278.853 208.019 292.668 207.333 306.24 208.123C324.824 209.205 342.443 215.573 355.027 229.771C366.978 243.253 372.526 261.637 371.401 279.5C370.244 297.89 363.23 313.623 349.349 325.885C329.521 340.827 313.508 342.071 289.431 342.046L259.096 342.063C258.65 324.458 259.015 306.752 259.018 289.136L259.13 208.058L265.252 208.001ZM282.942 318.122C300.688 317.762 320.513 320.15 334.306 306.32C342.673 297.951 346.593 287.72 346.549 275.894C346.504 263.573 342.957 251.245 333.969 242.406C318.523 227.214 302.096 230.753 282.985 230.088L282.942 318.122Z"/>
	<path fill="#FEFEFF" d="M422.257 244.057C432.606 243.699 443.155 244.533 451.803 250.875C456.894 254.609 460.252 259.913 462.017 265.935C464.461 274.269 464.071 283.269 464.041 291.855L463.999 318.141C464.004 326.041 463.841 334.131 465.073 341.954C457.818 342.208 450.503 342.051 443.241 342.081C442.796 338.461 442.115 334.923 441.855 331.274C440.484 332.423 439.093 333.55 437.685 334.653C428.896 341.408 419.678 344.484 408.585 342.977C400.25 341.845 393.455 338.03 388.332 331.368C385.036 326.744 383.842 321.489 383.783 315.862C383.706 308.374 386.389 301.095 391.73 295.763C404.228 283.282 424.663 283.879 441.052 283.814C441.117 278.775 441.172 273.986 437.981 269.751C435.549 266.522 431.907 264.899 427.975 264.362C416.691 262.821 408.211 268.892 399.771 275.358C396.244 270.454 392.89 265.39 389.49 260.394C389.643 260.198 389.794 259.999 389.954 259.808C398.15 250.09 409.78 245.002 422.257 244.057ZM420.19 325.079C426.645 324.857 433.452 322.756 437.938 317.862C442.405 312.989 441.144 305.208 441.045 299.085C436.869 299.047 431.88 298.532 427.803 299.255C420.894 299.87 413.63 300.838 408.839 306.474C406.787 308.888 405.705 312.102 406.027 315.271C406.308 318.034 407.742 320.376 409.911 322.063C412.898 324.388 416.515 324.948 420.19 325.079Z"/>
	<path fill="#FEFEFF" d="M470.299 244.255C478.105 245.261 486.47 244.257 494.38 244.569C497.475 250.361 499.514 257.04 501.798 263.201L513.736 295.202C515.671 300.382 517.333 305.714 519.572 310.77C527.83 288.67 535.787 266.407 544.558 244.503C552.305 244.414 560.053 244.378 567.801 244.396C567.89 247.198 560.865 264.225 559.106 267.059C559.044 269.436 532.218 336.152 529.609 341.955C523.037 342.278 516.317 342.076 509.735 341.997C506.706 336.018 504.425 329.327 501.901 323.108L486.869 285.92L476.275 260.072C474.178 254.95 471.634 249.623 470.299 244.255Z"/>
	<path fill="#FEFEFF" d="M647.628 244.084C657.195 243.353 666.135 244.539 674.923 248.561C677.968 249.955 684.272 253.023 685.475 256.264C685.459 256.418 685.454 256.573 685.428 256.726C685.089 258.747 676.456 270.426 674.741 271.507C674.604 271.268 674.593 271.223 674.375 270.991C669.844 266.166 660.379 263.096 653.918 262.814C649.679 262.629 645.91 263.332 642.767 266.356C641.335 267.733 640.833 269.432 640.863 271.386C641.002 280.199 661.769 283.458 668.388 285.97C672.985 287.714 677.4 290.041 680.995 293.441C686.151 298.317 688.372 304.528 688.476 311.542C688.59 319.277 686.043 326.895 680.552 332.445C672.458 340.627 661.648 343.308 650.504 343.453C641.096 343.56 630.613 340.81 623.036 335.133C620.347 333.119 618.183 330.436 615.422 328.525C615.34 328.467 615.255 328.413 615.172 328.357C617.099 326.695 626.399 316.252 627.228 314.497C628.796 315.051 630.481 316.844 631.875 317.848C638.534 322.641 645.677 325.509 654.073 324.859C657.692 324.579 662.261 323.068 664.601 320.163C666.254 318.112 667.197 315.212 666.796 312.579C665.497 304.045 647.854 301.371 641.154 299.067C637.005 297.64 632.866 295.801 629.28 293.255C624.23 289.671 620.271 284.556 619.283 278.332C618.03 270.43 619.46 262.95 624.177 256.437C629.899 248.537 638.376 245.622 647.628 244.084Z"/>
	<path fill="#FEFEFF" d="M579.374 244.442C586.91 243.853 594.749 244.658 602.335 244.428C602.582 244.884 602.754 245.21 602.862 245.721C603.421 248.374 603.033 251.946 603.03 254.697L603.005 274.058L603.01 316.402C603.019 323.884 603.258 331.447 602.996 338.917C602.95 340.237 602.979 340.83 602.273 341.956C594.543 342.213 586.767 342.048 579.031 342.04C579.418 341.423 579.495 340.783 579.523 340.067C579.779 333.601 579.533 327.021 579.532 320.545L579.518 280.545L579.548 256.716C579.553 252.722 579.889 248.399 579.374 244.442Z"/>
	<path fill="#FEFEFF" d="M588.933 207.325C596.453 205.893 603.699 210.869 605.063 218.402C606.427 225.935 601.385 233.134 593.84 234.429C586.39 235.708 579.302 230.745 577.955 223.308C576.609 215.872 581.508 208.739 588.933 207.325Z"/>
</svg>
