<?xml version="1.0" encoding="utf-8" ?>
<svg xmlns="http://www.w3.org/2000/svg" xmlns:xlink="http://www.w3.org/1999/xlink" width="1024" height="1024">
	<path fill="#FEFFFF" d="M238.117 391.019C240.42 390.864 242.396 391.516 244.521 392.338C259.38 398.085 275.459 406.332 290.214 412.993L314.195 423.883C318.66 425.917 323.521 427.786 327.703 430.336C329.577 431.478 330.276 432.35 330.697 434.53C332.033 441.457 331.011 461.824 330.991 469.981C330.943 489.595 331.817 509.549 330.867 529.119C330.647 533.65 329.999 538.21 329.171 542.666C326.719 555.808 321.819 568.372 314.724 579.703C300.885 601.554 281.312 617.275 258.031 628.117C251.635 631.096 245.013 633.975 238.108 635.503C233.68 635.434 228.65 633.417 224.56 631.825C206.973 625.125 191.005 614.775 177.709 601.457C144.271 567.836 145.01 537.313 145.012 493.622L145.072 432.08C151.076 428.694 157.638 426.089 163.926 423.281L196.324 408.885L222.19 397.494C227.392 395.213 232.615 392.49 238.117 391.019ZM165.016 444.557L165.038 499.575C165.022 536.227 163.439 560.658 191.949 588.712C201.871 598.476 224.444 614.073 238.753 614.036C262.325 608.409 285.084 590.505 297.734 570.085C303.787 560.312 307.868 549.449 309.747 538.108C311.923 525.642 311.098 512.459 311.096 499.835L310.972 444.437C301.786 439.678 242.587 412.185 237.375 411.934C221.32 419.471 204.955 426.414 188.747 433.618C180.785 437.157 172.721 440.477 165.016 444.557Z"/>
	<path fill="#FEFFFF" d="M194.521 460.104C210.239 459.66 226.064 460.019 241.793 460.013C255.226 460.007 268.864 459.514 282.262 460.273C280.309 466.98 277.607 473.484 275.091 479.997L214.462 480.104C214.629 487.733 214.478 495.391 214.463 503.022C230.599 503.038 246.965 502.396 263.063 503.278C261.623 509.751 259.029 517.077 255.996 522.982L217.875 523.024C216.854 523.007 215.874 523.119 214.861 523.234C214.601 523.866 214.505 524.024 214.372 524.791C213.501 529.817 214.296 540.23 218.024 543.907C219.302 545.168 221.185 545.721 222.928 545.963C228.664 546.76 235.165 546.179 240.999 546.161C254.166 546.012 267.335 546.032 280.501 546.222C278.538 553.649 275.309 560.828 272.451 567.952L242.749 568.035C234.79 568.063 226.228 568.765 218.431 567.086C210.404 565.357 203.149 561.37 198.723 554.215C196.209 550.152 195.001 545.589 194.426 540.886C192.941 528.716 194.027 514.361 193.992 501.947C193.966 492.838 192.856 467.639 194.521 460.104Z"/>
	<path fill="#FEFFFF" d="M304.25 263.246L611.674 263.327L692.957 263.284C710.005 263.249 729.106 261.661 745.807 264.755C769.614 269.09 791.523 280.607 808.592 297.759C833.037 322.112 842.875 353.918 843.007 387.797L843.001 561.127L843.025 612.961C843.031 630.379 843.842 647.922 840.054 665.048C835.363 686.177 824.697 705.512 809.327 720.75C792.209 737.867 771.346 748.657 747.575 752.959C731.729 755.826 714.118 754.463 698.032 754.463L616.591 754.445L309.059 754.463C299.39 754.452 289.407 754.612 279.807 753.35C255.754 750.188 233.071 737.844 216.103 720.714C188.561 692.91 181.869 662.648 182.017 625.015C186.698 626.82 191.358 628.678 195.997 630.587C195.898 653.871 199.833 675.508 212.972 695.219C227.966 718.062 251.558 733.873 278.385 739.061C284.446 740.063 290.555 740.856 296.703 740.985C330.346 741.692 364.163 741.011 397.82 741.008L597.345 741.01L690.75 741.009C707.666 741.009 727.674 742.382 744.165 739.577C764.886 736.215 784.051 726.497 799.008 711.767C818.965 692.352 828.569 666.353 828.953 638.77C829.24 618.136 828.947 597.464 828.942 576.825L828.953 458.188L828.99 406.368C829.007 391.918 829.895 376.984 827.113 362.744C823.096 342.184 813.928 323.042 799.204 308C779.938 288.441 753.714 277.303 726.262 277.018L420.639 277.025L337.419 277.007C318.732 276.997 298.788 275.606 280.356 278.952C260.317 282.617 241.877 292.318 227.504 306.754C204.792 329.318 196.013 357.879 195.989 389.356C191.248 390.888 186.602 392.511 181.965 394.342C181.892 357.111 189.672 325.102 216.654 297.658C233.898 280.119 257.528 267.849 281.938 264.4C289.338 263.355 296.793 263.293 304.25 263.246Z"/>
	<path fill="#FEFFFF" d="M382.109 439.041L411.752 438.944C435.294 438.889 457.08 440.269 474.944 457.579C487.833 470.068 494.231 487.526 494.506 505.28C494.794 523.838 488.518 540.592 475.642 553.942C456.403 571.625 435.584 573.076 410.747 573.032L382.058 573.039C381.712 555.541 382.002 537.982 382 520.478L382.109 439.041ZM406.012 549.05C425.159 549.081 442.562 550.602 457.799 536.908C466.39 527.556 470.054 517.105 469.518 504.383C469.012 492.376 464.919 480.631 455.89 472.364C441.695 459.366 423.869 460.924 405.994 461.046C405.996 490.368 405.653 519.732 406.012 549.05Z"/>
	<path fill="#FEFFFF" d="M543.371 475.177C553.383 473.878 566.266 475.455 574.547 481.663C579.743 485.558 583.142 490.831 584.974 496.997C587.376 505.083 587.059 513.677 587.045 522.019C587.019 537.233 585.684 557.811 588.01 572.386C588.042 572.582 588.077 572.778 588.111 572.975L566.186 573.062C565.806 569.443 565.195 565.844 564.817 562.217C564.137 562.83 563.442 563.425 562.732 564.002C553.935 571.291 544.486 575.389 532.929 574.161C524.226 573.237 517.142 569.583 511.611 562.758C508.499 558.067 506.956 553.423 506.773 547.794C506.522 540.067 509.116 532.507 514.577 526.926C526.96 514.273 547.741 514.889 564.049 514.851C564.109 509.937 564.205 505.112 561.168 500.921C558.805 497.661 555.246 496.008 551.334 495.439C540.092 493.804 531.175 499.801 522.755 506.326L512.462 491.374C520.414 481.815 531.217 476.695 543.371 475.177ZM542.417 556.066C548.724 555.946 555.409 554.549 559.958 549.817C565.135 544.433 564.192 536.9 564.035 530.053C559.823 530.022 555.506 529.794 551.313 530.215C544.215 530.821 536.9 531.696 531.946 537.495C529.842 539.958 528.564 543.274 528.912 546.537C529.178 549.041 530.48 551.173 532.433 552.731C535.379 555.082 538.739 555.855 542.417 556.066Z"/>
	<path fill="#FEFFFF" d="M593.081 475.39C601.167 475.689 609.325 475.506 617.417 475.517C627.379 496.843 633.478 520.129 642.591 541.844C650.141 519.539 659.012 497.464 667.53 475.495L691.337 475.464C688.23 482.778 685.465 490.282 682.545 497.676C671.933 522.485 663.532 548.335 652.563 572.985C645.915 573.064 639.259 572.998 632.61 572.996C619.349 540.53 605.712 508.103 593.081 475.39Z"/>
	<path fill="#FEFFFF" d="M770.495 475.165C770.838 475.115 771.182 475.071 771.528 475.046C785.884 473.993 798.297 477.662 809.113 487.254L798.387 502.623C791.694 497.652 784.329 493.672 775.762 493.812C771.956 493.874 768.123 494.694 765.458 497.63C764.095 499.132 763.756 501.182 763.951 503.153C764.742 511.129 784.079 514.338 790.316 516.61C794.543 518.149 798.657 520.137 802.201 522.936C807.6 527.2 810.68 532.66 811.399 539.505C812.199 547.113 809.943 556.134 804.924 561.99C797.188 571.016 786.496 573.534 775.189 574.51C759.741 573.94 749.652 570.385 738.644 559.369C742.179 554.36 746.489 549.807 750.777 545.44C751.764 546.388 752.784 547.3 753.836 548.174C760.097 553.37 769.334 556.751 777.546 555.835C781.226 555.425 785.507 553.953 787.809 550.884C789.257 548.953 790.337 545.745 789.836 543.328C788.183 535.36 771.796 532.599 765.114 530.351C761.18 529.027 757.319 527.43 753.802 525.205C748.163 521.637 743.576 516.495 742.251 509.792C740.775 502.325 742.642 493.638 747.116 487.478C752.827 479.616 761.262 476.533 770.495 475.165Z"/>
	<path fill="#FEFFFF" d="M702.539 475.363C710.324 475.653 718.18 475.464 725.974 475.483L726.005 573.011L702.571 573.022C702.141 540.488 702.523 507.903 702.539 475.363Z"/>
	<path fill="#FEFFFF" d="M711.382 438.447C718.746 436.728 726.117 441.269 727.895 448.618C729.673 455.968 725.193 463.376 717.858 465.213C710.439 467.072 702.926 462.529 701.128 455.094C699.329 447.66 703.934 440.185 711.382 438.447Z"/>
</svg>
